<?xml version="1.0" standalone="no"?>
<!DOCTYPE svg PUBLIC "-//W3C//DTD SVG 20010904//EN"
 "http://www.w3.org/TR/2001/REC-SVG-20010904/DTD/svg10.dtd">
<svg version="1.0" xmlns="http://www.w3.org/2000/svg"
 width="696.000000pt" height="696.000000pt" viewBox="0 0 696.000000 696.000000"
 preserveAspectRatio="xMidYMid meet">
<metadata>
Created by potrace 1.11, written by Peter Selinger 2001-2013
</metadata>
<g transform="translate(0.000000,696.000000) scale(0.100000,-0.100000)"
fill="#000000" stroke="none">
<path d="M3433 6728 c-14 -7 -44 -55 -80 -127 -32 -64 -69 -136 -84 -161 -14
-25 -26 -49 -27 -53 -2 -16 -127 -262 -134 -265 -5 -2 -8 -9 -8 -15 0 -10 -80
-177 -90 -187 -3 -3 -34 -66 -70 -140 -36 -74 -68 -136 -72 -138 -5 -2 -8 -10
-8 -19 0 -8 -6 -21 -14 -29 -12 -11 -17 -12 -28 -1 -13 13 -120 67 -169 85
-20 8 -31 24 -44 63 -9 30 -25 65 -34 79 -9 14 -22 37 -30 51 -29 58 -136 155
-216 196 -87 44 -92 46 -190 64 -47 9 -174 6 -220 -5 -79 -19 -191 -76 -249
-127 -32 -28 -56 -37 -56 -21 -1 19 -156 162 -176 162 -4 0 -15 6 -23 13 -19
16 -137 64 -178 72 -70 13 -101 17 -165 19 -37 1 -68 -2 -68 -7 0 -4 -4 -6 -9
-3 -27 17 -254 -68 -299 -111 -7 -7 -16 -13 -20 -13 -23 0 -182 -181 -182
-207 0 -6 -7 -16 -15 -23 -8 -6 -14 -15 -13 -18 1 -4 -5 -20 -12 -37 -7 -16
-14 -35 -16 -42 -1 -6 -7 -27 -12 -45 -6 -18 -13 -50 -15 -71 -5 -39 -22 -67
-41 -67 -6 0 -37 -17 -68 -38 -229 -152 -306 -441 -183 -687 34 -68 130 -185
152 -185 6 0 16 -7 23 -15 17 -20 109 -62 174 -80 73 -20 236 -12 301 14 61
24 118 52 125 61 3 4 15 12 28 19 19 10 23 9 31 -11 13 -35 92 -138 136 -178
65 -60 71 -65 101 -83 40 -25 164 -86 164 -82 0 2 18 -2 40 -10 98 -35 262
-36 385 -3 22 5 42 11 45 11 19 4 152 75 188 100 76 55 165 150 207 224 18 30
21 32 40 19 12 -8 40 -20 63 -27 23 -7 42 -14 42 -15 0 -10 -106 -220 -112
-222 -5 -2 -8 -8 -8 -13 0 -8 -131 -274 -284 -576 -34 -68 -60 -123 -58 -123
2 0 -5 -12 -15 -27 -11 -16 -28 -48 -38 -73 -10 -25 -22 -49 -26 -55 -4 -5
-141 -278 -306 -605 -164 -327 -302 -598 -308 -602 -5 -4 -7 -8 -4 -8 4 0 -23
-57 -58 -128 -36 -70 -238 -472 -449 -894 -245 -488 -391 -769 -402 -772 -9
-2 -48 -3 -87 -2 -38 1 -82 -2 -98 -7 -100 -33 -72 -166 36 -167 504 -5 6691
1 6710 5 60 16 73 115 20 150 -21 14 -49 18 -126 18 l-100 1 -22 47 c-12 27
-28 55 -35 64 -7 8 -10 15 -7 15 2 0 -29 64 -69 143 -70 135 -95 186 -96 197
0 3 -9 17 -20 33 -11 15 -16 27 -12 27 3 0 2 6 -4 13 -14 17 -363 715 -361
723 0 4 -3 10 -8 13 -7 5 -145 279 -894 1773 -137 273 -249 501 -249 506 0 6
-3 12 -7 14 -5 2 -64 116 -132 253 -69 138 -131 257 -137 265 -7 8 -13 20 -14
25 -2 10 -122 253 -140 285 -5 8 -25 48 -45 88 -20 40 -40 81 -45 90 -5 9 -23
46 -40 82 -17 36 -36 72 -41 80 -5 8 -14 26 -19 40 -6 14 -23 49 -39 78 -16
28 -26 52 -24 52 3 0 0 6 -6 14 -6 7 -25 42 -42 77 -17 35 -35 72 -40 82 -6
11 -132 260 -280 555 -149 296 -276 543 -283 550 -18 18 -76 24 -103 10z m474
-1118 c230 -459 422 -838 426 -841 5 -3 8 -8 7 -10 -2 -3 73 -160 100 -209 36
-67 37 -61 -36 -161 -38 -52 -73 -99 -79 -106 -5 -6 -28 -37 -50 -68 -22 -31
-50 -68 -61 -82 l-22 -26 -18 29 c-10 16 -21 31 -24 34 -4 3 -51 66 -105 140
-166 225 -161 220 -213 220 -36 0 -45 -5 -69 -37 -15 -21 -30 -40 -33 -43 -3
-3 -30 -39 -60 -80 -29 -41 -56 -77 -59 -80 -3 -3 -22 -27 -41 -55 -19 -27
-40 -57 -47 -65 -6 -8 -20 -25 -30 -38 l-18 -23 -70 96 c-39 53 -75 101 -80
108 -6 7 -41 54 -79 105 -38 51 -77 97 -87 102 -25 14 -71 12 -93 -5 -17 -13
-93 -114 -239 -317 -34 -48 -64 -87 -67 -87 -3 -1 -36 42 -75 95 -38 53 -76
103 -83 112 -7 10 -37 50 -67 91 l-54 73 34 67 33 67 63 12 c200 37 376 212
419 417 26 120 6 255 -55 372 -12 23 4 58 243 534 140 280 259 506 263 502 4
-5 195 -384 426 -843z m-2699 444 c128 -39 261 -144 313 -249 23 -46 68 -86
92 -81 38 8 67 29 86 60 46 74 141 139 246 170 42 12 149 13 199 2 109 -25
231 -124 281 -228 22 -45 28 -66 39 -124 9 -44 31 -65 86 -80 30 -8 73 -22 95
-29 44 -16 138 -89 143 -111 2 -8 7 -14 11 -14 8 0 35 -51 31 -59 -1 -2 2 -7
8 -10 13 -9 32 -92 32 -140 0 -59 -20 -142 -41 -173 -11 -14 -19 -31 -19 -36
0 -17 -104 -106 -151 -129 -73 -36 -169 -44 -254 -22 -47 13 -84 32 -142 75
-32 24 -51 30 -74 28 -44 -5 -63 -25 -90 -92 -13 -31 -26 -59 -29 -62 -3 -3
-16 -21 -28 -40 -45 -72 -135 -149 -224 -190 -155 -72 -331 -66 -498 17 -110
55 -227 201 -266 332 -16 56 -44 81 -89 81 -32 0 -37 -3 -118 -88 -27 -28 -65
-58 -85 -67 -20 -9 -48 -22 -61 -28 -13 -7 -63 -12 -110 -12 -76 0 -94 4 -151
32 -36 17 -75 41 -88 54 -67 70 -73 79 -111 173 -14 35 -16 151 -3 186 5 14
10 29 10 33 0 4 10 27 22 52 27 55 102 131 146 147 19 6 34 16 34 20 0 4 7 8
16 8 31 0 82 32 93 58 6 15 11 50 12 77 5 118 57 231 149 325 67 68 160 123
230 135 19 3 37 8 39 11 10 10 175 1 219 -12z m2014 -2165 c11 -6 72 -63 135
-126 62 -63 118 -113 123 -111 11 4 180 168 181 177 2 17 74 64 104 68 29 4
40 -1 64 -25 17 -17 28 -37 26 -48 -2 -10 -4 -26 -4 -35 -1 -8 -58 -72 -127
-141 l-125 -126 124 -125 c126 -127 144 -157 127 -202 -13 -34 -55 -56 -92
-50 -24 5 -63 37 -157 130 l-124 124 -124 -122 c-68 -67 -133 -125 -144 -129
-51 -19 -108 23 -109 80 0 36 28 70 178 215 39 39 72 73 72 77 0 4 -56 63
-125 132 -114 114 -125 128 -125 161 0 65 66 106 122 76z m291 -680 c34 -15
49 -45 53 -108 15 -247 15 -236 -9 -267 -25 -33 -38 -38 -83 -29 -58 10 -71
56 -79 265 -3 91 9 124 49 140 29 12 41 12 69 -1z m89 -596 c16 -14 33 -60 44
-118 2 -11 13 -51 24 -90 26 -90 25 -118 -2 -149 -23 -25 -35 -29 -74 -27 -23
1 -66 39 -70 62 -2 8 -14 53 -28 102 -13 48 -23 87 -20 87 2 0 -2 12 -9 28
-21 40 3 109 43 124 23 9 73 -1 92 -19z m174 -537 c12 -4 32 -26 44 -49 13
-23 47 -79 77 -125 73 -113 71 -160 -7 -190 -31 -12 -87 8 -97 35 -4 10 -9 20
-13 23 -9 7 -65 91 -73 110 -4 8 -18 33 -32 55 -32 54 -32 90 3 124 28 28 53
32 98 17z m410 -493 c32 -27 85 -67 117 -91 32 -24 62 -54 67 -67 18 -48 -9
-102 -57 -111 -37 -7 -62 0 -89 24 -10 9 -39 31 -63 47 -25 17 -69 53 -98 81
-46 44 -53 55 -52 85 3 43 40 79 84 79 22 0 48 -14 91 -47z m434 -297 c66 -35
126 -70 140 -80 8 -7 32 -21 53 -31 43 -22 53 -35 60 -81 5 -33 -5 -52 -43
-77 -34 -22 -57 -16 -142 33 -38 22 -74 40 -79 40 -5 0 -9 5 -9 10 0 6 -5 10
-10 10 -25 0 -89 54 -95 80 -18 80 53 135 125 96z m586 -353 c46 -32 97 -67
113 -78 49 -33 60 -93 24 -136 -36 -43 -76 -39 -150 14 -32 23 -84 59 -115 80
-31 21 -62 45 -69 53 -18 22 -19 77 0 100 44 55 78 50 197 -33z"/>
</g>
</svg>
