<?xml version="1.0" encoding="UTF-8" standalone="no"?>
<!DOCTYPE svg PUBLIC "-//W3C//DTD SVG 1.1//EN" "http://www.w3.org/Graphics/SVG/1.1/DTD/svg11.dtd">
<svg width="100%" height="100%" viewBox="0 0 546 406" version="1.1" xmlns="http://www.w3.org/2000/svg" xmlns:xlink="http://www.w3.org/1999/xlink" xml:space="preserve" xmlns:serif="http://www.serif.com/" style="fill-rule:evenodd;clip-rule:evenodd;stroke-linejoin:round;stroke-miterlimit:1.41421;">
    <g transform="matrix(1,0,0,1,-409.49,-78)">
        <g id="Wordmark" transform="matrix(0.974284,0,0,1.00724,67.8299,-76.8164)">
            <g transform="matrix(1.0264,0,0,0.99281,-69.6203,76.2641)">
                <path d="M446.003,437.788L446.003,427.271C446.003,424.931 447.623,423.311 449.963,423.311C452.393,423.311 454.013,424.931 454.013,427.271L454.013,437.788L464.53,437.788C466.87,437.788 468.49,439.408 468.49,441.748C468.49,444.178 466.87,445.798 464.53,445.798L454.013,445.798L454.013,459.824L464.53,459.824C466.87,459.824 468.49,461.444 468.49,463.784C468.49,466.214 466.87,467.834 464.53,467.834L454.013,467.834L454.013,478.351C454.013,480.691 452.393,482.311 449.963,482.311C447.623,482.311 446.003,480.691 446.003,478.351L446.003,467.834L431.978,467.834L431.978,478.351C431.978,480.691 430.358,482.311 427.928,482.311C425.588,482.311 423.968,480.691 423.968,478.351L423.968,467.834L413.45,467.834C411.11,467.834 409.49,466.214 409.49,463.784C409.49,461.444 411.11,459.824 413.45,459.824L423.968,459.824L423.968,445.798L413.45,445.798C411.11,445.798 409.49,444.178 409.49,441.748C409.49,439.408 411.11,437.788 413.45,437.788L423.968,437.788L423.968,427.271C423.968,424.931 425.588,423.311 427.928,423.311C430.358,423.311 431.978,424.931 431.978,427.271L431.978,437.788L446.003,437.788ZM431.978,445.798L431.978,459.824L446.003,459.824L446.003,445.798L431.978,445.798Z" style="fill-rule:nonzero;"/>
            </g>
            <path d="M455.18,487.835L412.748,487.835C410.252,487.835 408.332,489.563 408.332,491.963C408.332,494.363 410.252,496.187 412.748,496.187L430.22,496.187L430.22,550.619C430.22,553.115 431.948,555.035 434.444,555.035C436.844,555.035 438.572,553.115 438.572,550.619L438.572,496.187L455.18,496.187C457.676,496.187 459.596,494.363 459.596,491.963C459.596,489.563 457.676,487.835 455.18,487.835Z" style="fill-rule:nonzero;"/>
            <g transform="matrix(0.974619,0,0,0.974619,8.01607,14.1114)">
                <path d="M477.644,555.995C464.78,555.995 455.948,545.531 455.948,531.035C455.948,517.403 465.548,506.075 477.644,506.075C489.74,506.075 499.244,516.539 499.244,529.403C499.244,531.515 497.804,533.435 495.308,533.435L464.012,533.435C464.78,542.267 470.348,547.835 477.644,547.835C483.212,547.835 487.628,544.763 489.74,542.267C493.388,537.947 499.244,542.939 496.076,547.067C493.004,551.195 485.612,555.995 477.644,555.995ZM464.78,525.467L490.508,525.467C488.876,518.939 483.98,514.235 477.644,514.235C471.98,514.235 466.412,518.939 464.78,525.467Z" style="fill-rule:nonzero;"/>
            </g>
            <g transform="matrix(1,0,0,1,-4.10558,0)">
                <path d="M543.308,547.163C542.828,547.163 542.828,546.395 542.828,545.723C542.828,542.075 542.828,534.299 542.732,523.643L542.732,523.163C542.732,512.795 536.3,507.035 525.26,507.035C511.244,507.035 507.98,516.539 507.98,519.899C507.98,522.107 509.036,523.835 511.724,523.835C515.468,523.835 514.796,519.899 517.388,517.307C519.02,515.675 521.612,514.907 525.26,514.907C532.46,514.907 534.764,517.019 534.86,521.915C534.764,524.507 530.636,526.427 523.724,526.427C511.34,526.427 505.676,534.779 505.676,541.691C505.676,548.411 510.668,555.035 521.9,555.035C527.66,555.035 532.46,552.731 535.82,550.331C537.26,553.499 540.332,555.035 543.212,555.035C546.668,555.035 548.396,553.787 548.396,551.195C548.396,548.795 546.668,547.259 543.308,547.163ZM521.9,547.163C516.62,547.163 513.548,545.243 513.548,541.691C513.548,539.099 515.468,534.203 523.724,534.203C528.62,534.203 532.268,533.339 534.956,532.091L534.956,540.539C533.42,542.267 528.62,547.163 521.9,547.163Z" style="fill-rule:nonzero;"/>
            </g>
            <g transform="matrix(1,0,0,1,-4.10558,0)">
                <path d="M599.468,505.979C594.38,505.979 589.868,508.187 586.7,511.547C583.628,508.091 578.828,505.979 572.972,505.979C569.708,505.979 566.444,507.131 563.756,508.955C563.18,507.803 562.028,507.035 560.492,507.035C558.284,507.035 556.556,509.051 556.556,511.547L556.556,550.523C556.556,553.115 558.284,555.035 560.492,555.035C562.892,555.035 564.428,553.115 564.428,550.523L564.428,521.531C564.428,517.691 569.132,513.755 572.972,513.755C577.676,513.755 582.284,516.059 582.284,520.667L582.284,550.523C582.284,553.115 584.012,555.035 586.22,555.035C588.428,555.035 590.06,553.115 590.06,550.523L590.06,521.531C590.06,517.691 594.764,513.755 599.468,513.755C604.076,513.755 608.012,516.059 608.012,520.667L608.012,550.523C608.012,553.115 609.644,555.035 612.044,555.035C614.252,555.035 615.884,553.115 615.884,550.523L615.884,520.667C615.884,512.219 608.78,505.979 599.468,505.979Z" style="fill-rule:nonzero;"/>
            </g>
            <g transform="matrix(1,0,0,1,-4.10558,0)">
                <path d="M661.5,546.587L634.028,546.587L634.028,492.251C634.028,489.755 632.204,487.835 629.804,487.835C627.308,487.835 625.484,489.755 625.484,492.251L625.484,550.811C625.484,553.403 627.212,555.035 629.708,555.035L661.5,555.035C663.996,555.035 665.916,553.211 665.916,550.811C665.916,548.411 663.996,546.587 661.5,546.587Z" style="fill-rule:nonzero;"/>
            </g>
            <g transform="matrix(0.974619,0,0,0.974619,217.263,12.9568)">
                <path d="M477.644,555.995C464.78,555.995 455.948,545.531 455.948,531.035C455.948,517.403 465.548,506.075 477.644,506.075C489.74,506.075 499.244,516.539 499.244,529.403C499.244,531.515 497.804,533.435 495.308,533.435L464.012,533.435C464.78,542.267 470.348,547.835 477.644,547.835C483.212,547.835 487.628,544.763 489.74,542.267C493.388,537.947 499.244,542.939 496.076,547.067C493.004,551.195 485.612,555.995 477.644,555.995ZM464.78,525.467L490.508,525.467C488.876,518.939 483.98,514.235 477.644,514.235C471.98,514.235 466.412,518.939 464.78,525.467Z" style="fill-rule:nonzero;"/>
            </g>
            <g transform="matrix(1,0,0,1,-19.5015,0)">
                <path d="M767.852,547.163C767.372,547.163 767.372,546.395 767.372,545.723C767.372,542.075 767.372,534.299 767.276,523.643L767.276,523.163C767.276,512.795 760.844,507.035 749.804,507.035C735.788,507.035 732.524,516.539 732.524,519.899C732.524,522.107 733.58,523.835 736.268,523.835C740.012,523.835 739.34,519.899 741.932,517.307C743.564,515.675 746.156,514.907 749.804,514.907C757.004,514.907 759.308,517.019 759.404,521.915C759.308,524.507 755.18,526.427 748.268,526.427C735.884,526.427 730.22,534.779 730.22,541.691C730.22,548.411 735.212,555.035 746.444,555.035C752.204,555.035 757.004,552.731 760.364,550.331C761.804,553.499 764.876,555.035 767.756,555.035C771.212,555.035 772.94,553.787 772.94,551.195C772.94,548.795 771.212,547.259 767.852,547.163ZM746.444,547.163C741.164,547.163 738.092,545.243 738.092,541.691C738.092,539.099 740.012,534.203 748.268,534.203C753.164,534.203 756.812,533.339 759.5,532.091L759.5,540.539C757.964,542.267 753.164,547.163 746.444,547.163Z" style="fill-rule:nonzero;"/>
            </g>
            <g transform="matrix(1,0,0,1,-19.5015,0)">
                <path d="M812.684,489.851C810.38,489.851 808.556,491.579 808.556,494.075L808.556,508.379C805.388,505.883 801.356,504.539 796.46,504.539C785.036,504.539 776.972,515.099 776.972,529.691C776.972,544.475 785.036,555.035 796.46,555.035C800.588,555.035 805.004,553.691 808.556,550.619L808.556,550.715C808.556,553.307 810.38,555.035 812.684,555.035C815.084,555.035 816.62,553.307 816.62,550.715L816.62,494.075C816.62,491.579 814.988,489.851 812.684,489.851ZM796.46,546.875C787.436,546.875 785.036,537.851 785.036,529.691C785.036,521.627 787.436,512.699 796.46,512.699C804.62,512.699 808.556,518.363 808.556,529.691C808.556,536.315 807.02,546.875 796.46,546.875Z" style="fill-rule:nonzero;"/>
            </g>
            <g transform="matrix(1,0,0,1,-19.5015,0)">
                <path d="M870.476,487.835L828.044,487.835C825.548,487.835 823.628,489.563 823.628,491.963C823.628,494.363 825.548,496.187 828.044,496.187L845.516,496.187L845.516,550.619C845.516,553.115 847.244,555.035 849.74,555.035C852.14,555.035 853.868,553.115 853.868,550.619L853.868,496.187L870.476,496.187C872.972,496.187 874.892,494.363 874.892,491.963C874.892,489.563 872.972,487.835 870.476,487.835Z" style="fill-rule:nonzero;"/>
            </g>
            <g transform="matrix(1.06484,0,0,0.979172,-80.9029,11.5803)">
                <path d="M904.652,555.995C890.06,555.995 878.252,540.539 878.252,521.531C878.252,502.523 890.06,486.971 904.652,486.971C919.244,486.971 931.148,502.523 931.148,521.531C931.148,540.539 919.244,555.995 904.652,555.995ZM904.652,495.611C894.86,495.611 886.796,507.227 886.796,521.531C886.796,535.835 894.86,547.451 904.652,547.451C914.54,547.451 922.508,535.835 922.508,521.531C922.508,513.89 920.235,507.016 916.609,502.27C913.448,498.131 909.258,495.611 904.652,495.611Z" style="fill-rule:nonzero;"/>
            </g>
        </g>
        <g id="Mountain" transform="matrix(4.29161,0,0,4.29161,470.084,10.7547)">
            <g transform="matrix(0.233013,0,0,0.233013,-109.535,-2.50598)">
                <path d="M667.724,192.435L684.665,213.539L703.147,192.224L719.919,213.934L743.854,190.417L843.111,388.099C843.117,388.112 843.123,388.125 843.128,388.138L843.14,388.178L843.142,388.187C843.162,388.263 843.166,388.342 843.197,388.417L852.038,388.417C854.151,388.417 855.904,389.942 856.262,391.949L856.28,392.055L856.295,392.162L856.307,392.27L856.317,392.378L856.324,392.488L856.328,392.598C856.329,392.634 856.329,392.671 856.329,392.708C856.329,392.745 856.329,392.782 856.328,392.819C856.328,392.819 856.326,392.858 856.326,392.858L856.324,392.929L856.324,392.929L856.32,392.98L856.317,393.038L856.317,393.038L856.311,393.1L856.307,393.147L856.307,393.147L856.299,393.22L856.295,393.255L856.295,393.255L856.283,393.342L856.28,393.362C856.28,393.362 856.28,393.362 856.28,393.362L856.263,393.466L856.262,393.468C855.904,395.475 854.151,397 852.038,397L517.292,397L517.181,396.999C517.144,396.998 517.107,396.996 517.07,396.994C516.796,396.98 516.529,396.941 516.27,396.878L516.218,396.865L516.137,396.843L516.116,396.837L516.112,396.836C515.909,396.778 515.713,396.706 515.524,396.621C515.459,396.591 515.394,396.56 515.331,396.527C515.136,396.427 514.95,396.313 514.775,396.185L514.723,396.147L514.714,396.141C514.03,395.626 513.505,394.912 513.225,394.084L513.203,394.015C513.167,393.904 513.136,393.792 513.11,393.677C513.038,393.366 513,393.042 513,392.708C513,392.671 513,392.634 513.001,392.598C513.001,392.598 513.003,392.558 513.003,392.558L513.006,392.488L513.006,392.488L513.006,392.488L513.009,392.437L513.012,392.378L513.012,392.378L513.012,392.378L513.018,392.317L513.022,392.27L513.022,392.27L513.022,392.27L513.03,392.197L513.034,392.162L513.034,392.162L513.034,392.162L513.047,392.075L513.049,392.055C513.049,392.055 513.049,392.055 513.049,392.055L513.067,391.951L513.067,391.949C513.425,389.942 515.177,388.417 517.292,388.417L526.132,388.417C526.163,388.342 526.168,388.263 526.187,388.187L526.189,388.178L526.189,388.178L526.189,388.178L526.197,388.151L526.201,388.138L526.201,388.138C526.206,388.125 526.212,388.112 526.218,388.099L531.358,377.863L626.85,187.689L629.032,183.342C627.35,182.901 641.699,207.857 647.982,214.263C650.388,216.716 667.724,192.435 667.724,192.435ZM766.99,365.52C765.003,364.241 762.342,364.816 761.059,366.807C759.775,368.799 760.35,371.455 762.346,372.738C766.131,375.172 769.376,377.459 772.255,379.717C773.045,380.335 773.972,380.631 774.899,380.631C776.174,380.631 777.435,380.064 778.281,378.987C779.744,377.12 779.418,374.425 777.551,372.962C774.453,370.537 771.002,368.103 766.99,365.52ZM752.501,356.816L750.089,355.43C747.291,353.821 744.484,352.207 741.699,350.559C739.665,349.358 737.03,350.031 735.824,352.07C734.618,354.113 735.292,356.744 737.335,357.945C740.146,359.615 742.982,361.245 745.81,362.868L748.214,364.25C748.892,364.64 749.626,364.825 750.355,364.825C751.84,364.825 753.282,364.052 754.076,362.679C755.261,360.627 754.557,358.005 752.501,356.816ZM718.374,334.389C716.593,332.831 713.872,333.011 712.319,334.796C710.761,336.582 710.941,339.294 712.726,340.852C715.795,343.534 719.147,346.135 722.971,348.813C723.722,349.336 724.576,349.589 725.425,349.589C726.777,349.589 728.112,348.954 728.944,347.757C730.301,345.817 729.833,343.139 727.889,341.779C724.322,339.281 721.207,336.865 718.374,334.389ZM701.362,312.849C700.264,310.755 697.693,309.922 695.569,311.029C693.47,312.128 692.655,314.716 693.749,316.823C695.83,320.818 698.182,324.582 700.736,328.003C701.577,329.136 702.869,329.732 704.182,329.732C705.07,329.732 705.971,329.457 706.74,328.882C708.641,327.47 709.036,324.78 707.619,322.883C705.345,319.818 703.238,316.445 701.362,312.849ZM695.281,298.111C694.101,294.421 693.067,290.49 692.208,286.425C691.719,284.104 689.47,282.623 687.118,283.117C684.801,283.606 683.316,285.885 683.81,288.206C684.728,292.55 685.839,296.764 687.11,300.729C687.693,302.553 689.376,303.712 691.195,303.712C691.629,303.712 692.067,303.643 692.504,303.506C694.762,302.785 696.006,300.369 695.281,298.111ZM684.706,254.024L684.578,254.024C682.208,254.097 680.346,256.071 680.411,258.44C680.535,262.774 680.81,267.079 681.217,271.233C681.436,273.448 683.303,275.1 685.483,275.1C685.625,275.108 685.766,275.1 685.917,275.087C688.273,274.851 689.998,272.752 689.762,270.392C689.371,266.435 689.114,262.332 688.994,258.191C688.925,255.865 687.016,254.024 684.706,254.024ZM696.332,256.676C697.169,257.513 698.268,257.933 699.367,257.933C700.465,257.933 701.564,257.513 702.401,256.676C704.079,254.998 704.079,252.286 702.401,250.608L690.732,238.943L702.401,227.278C704.079,225.6 704.079,222.888 702.401,221.21C700.723,219.532 698.01,219.532 696.332,221.21L684.664,232.875L672.995,221.21C671.317,219.532 668.604,219.532 666.926,221.21C665.248,222.888 665.248,225.6 666.926,227.278L678.595,238.943L666.926,250.608C665.248,252.286 665.248,254.998 666.926,256.676C667.763,257.513 668.862,257.933 669.96,257.933C671.059,257.933 672.158,257.513 672.995,256.676L684.664,245.011L696.332,256.676Z" style="fill-rule:nonzero;"/>
            </g>
            <path d="M13.06,88L11,88C10.447,88 10,88.448 10,89C10,89.552 10.447,90 11,90L89,90C89.553,90 90,89.552 90,89C90,88.448 89.553,88 89,88L86.94,88C86.93,87.976 86.932,87.95 86.92,87.926L50.894,16.176C50.554,15.5 49.447,15.5 49.107,16.176L42.563,29.209C41.842,28.633 41.001,28.196 40.061,27.98C39.328,24.904 36.557,22.668 33.332,22.668C31.454,22.668 29.703,23.414 28.419,24.717C26.951,22.691 24.577,21.444 22.024,21.444C17.866,21.444 14.447,24.674 14.147,28.757C11.745,29.669 10.126,31.968 10.126,34.593C10.126,38.04 12.93,40.844 16.377,40.844C17.859,40.844 19.269,40.32 20.377,39.392C21.773,42.254 24.694,44.138 27.979,44.138C31.175,44.138 34.048,42.352 35.488,39.58C35.973,39.861 36.495,40.073 37.037,40.215L13.08,87.926C13.068,87.95 13.07,87.976 13.06,88ZM15.281,88L37.39,43.968L40.827,48.632C41.204,49.144 42.061,49.142 42.436,48.632L45.811,44.05L49.187,48.632C49.375,48.888 49.674,49.039 49.992,49.039C50.31,49.039 50.608,48.888 50.797,48.632L54.176,44.049L57.559,48.633C57.747,48.888 58.046,49.039 58.364,49.039C58.682,49.039 58.98,48.888 59.169,48.633L62.612,43.968L84.719,88L15.281,88ZM50,18.854L61.603,41.963L58.362,46.354L54.978,41.77C54.79,41.515 54.491,41.364 54.173,41.364C53.855,41.364 53.557,41.515 53.368,41.771L49.99,46.354L46.614,41.771C46.237,41.259 45.381,41.259 45.004,41.771L41.63,46.353L38.395,41.964L39.181,40.399C42.402,40.12 44.938,37.414 44.938,34.123C44.938,32.912 44.584,31.786 43.99,30.821L50,18.854ZM34.808,37.066C34.48,37.151 34.217,37.397 34.111,37.718C33.228,40.363 30.764,42.14 27.978,42.14C25.015,42.14 22.439,40.132 21.713,37.256C21.616,36.872 21.303,36.582 20.912,36.515C20.855,36.505 20.799,36.5 20.743,36.5C20.412,36.5 20.097,36.665 19.911,36.946C19.119,38.135 17.797,38.846 16.376,38.846C14.032,38.846 12.125,36.939 12.125,34.595C12.125,32.631 13.459,30.934 15.369,30.47C15.824,30.359 16.141,29.948 16.133,29.479L16.125,29.344C16.125,26.092 18.771,23.446 22.023,23.446C24.322,23.446 26.427,24.802 27.386,26.9C27.539,27.235 27.865,27.46 28.233,27.483C28.601,27.505 28.952,27.324 29.146,27.011C30.052,25.545 31.617,24.67 33.331,24.67C35.806,24.67 37.903,26.521 38.211,28.975C38.269,29.435 38.636,29.796 39.097,29.845C41.288,30.079 42.94,31.918 42.94,34.123C42.94,36.497 41.009,38.427 38.635,38.427C37.558,38.427 36.529,38.026 35.735,37.299C35.484,37.068 35.135,36.981 34.808,37.066Z" style="fill-rule:nonzero;"/>
        </g>
    </g>
</svg>
