<?xml version="1.0" encoding="UTF-8" standalone="no"?>
<!DOCTYPE svg PUBLIC "-//W3C//DTD SVG 1.1//EN" "http://www.w3.org/Graphics/SVG/1.1/DTD/svg11.dtd">
<svg width="100%" height="100%" viewBox="0 0 546 406" version="1.1" xmlns="http://www.w3.org/2000/svg" xmlns:xlink="http://www.w3.org/1999/xlink" xml:space="preserve" xmlns:serif="http://www.serif.com/" style="fill-rule:evenodd;clip-rule:evenodd;stroke-linejoin:round;stroke-miterlimit:1.41421;">
    <g transform="matrix(1,0,0,1,-409.49,-78)">
        <g id="Logo">
            <g id="Wordmark" transform="matrix(0.974284,0,0,1.00724,67.8299,-76.8164)">
                <g transform="matrix(1.0264,0,0,0.99281,-69.6203,76.2641)">
                    <path d="M446.003,437.788L446.003,427.271C446.003,424.931 447.623,423.311 449.963,423.311C452.393,423.311 454.013,424.931 454.013,427.271L454.013,437.788L464.53,437.788C466.87,437.788 468.49,439.408 468.49,441.748C468.49,444.178 466.87,445.798 464.53,445.798L454.013,445.798L454.013,459.824L464.53,459.824C466.87,459.824 468.49,461.444 468.49,463.784C468.49,466.214 466.87,467.834 464.53,467.834L454.013,467.834L454.013,478.351C454.013,480.691 452.393,482.311 449.963,482.311C447.623,482.311 446.003,480.691 446.003,478.351L446.003,467.834L431.978,467.834L431.978,478.351C431.978,480.691 430.358,482.311 427.928,482.311C425.588,482.311 423.968,480.691 423.968,478.351L423.968,467.834L413.45,467.834C411.11,467.834 409.49,466.214 409.49,463.784C409.49,461.444 411.11,459.824 413.45,459.824L423.968,459.824L423.968,445.798L413.45,445.798C411.11,445.798 409.49,444.178 409.49,441.748C409.49,439.408 411.11,437.788 413.45,437.788L423.968,437.788L423.968,427.271C423.968,424.931 425.588,423.311 427.928,423.311C430.358,423.311 431.978,424.931 431.978,427.271L431.978,437.788L446.003,437.788ZM431.978,445.798L431.978,459.824L446.003,459.824L446.003,445.798L431.978,445.798Z" style="fill:white;fill-rule:nonzero;"/>
                </g>
                <path d="M455.18,487.835L412.748,487.835C410.252,487.835 408.332,489.563 408.332,491.963C408.332,494.363 410.252,496.187 412.748,496.187L430.22,496.187L430.22,550.619C430.22,553.115 431.948,555.035 434.444,555.035C436.844,555.035 438.572,553.115 438.572,550.619L438.572,496.187L455.18,496.187C457.676,496.187 459.596,494.363 459.596,491.963C459.596,489.563 457.676,487.835 455.18,487.835Z" style="fill:white;fill-rule:nonzero;"/>
                <g transform="matrix(0.974619,0,0,0.974619,8.01607,14.1114)">
                    <path d="M477.644,555.995C464.78,555.995 455.948,545.531 455.948,531.035C455.948,517.403 465.548,506.075 477.644,506.075C489.74,506.075 499.244,516.539 499.244,529.403C499.244,531.515 497.804,533.435 495.308,533.435L464.012,533.435C464.78,542.267 470.348,547.835 477.644,547.835C483.212,547.835 487.628,544.763 489.74,542.267C493.388,537.947 499.244,542.939 496.076,547.067C493.004,551.195 485.612,555.995 477.644,555.995ZM464.78,525.467L490.508,525.467C488.876,518.939 483.98,514.235 477.644,514.235C471.98,514.235 466.412,518.939 464.78,525.467Z" style="fill:white;fill-rule:nonzero;"/>
                </g>
                <g transform="matrix(1,0,0,1,-4.10558,0)">
                    <path d="M543.308,547.163C542.828,547.163 542.828,546.395 542.828,545.723C542.828,542.075 542.828,534.299 542.732,523.643L542.732,523.163C542.732,512.795 536.3,507.035 525.26,507.035C511.244,507.035 507.98,516.539 507.98,519.899C507.98,522.107 509.036,523.835 511.724,523.835C515.468,523.835 514.796,519.899 517.388,517.307C519.02,515.675 521.612,514.907 525.26,514.907C532.46,514.907 534.764,517.019 534.86,521.915C534.764,524.507 530.636,526.427 523.724,526.427C511.34,526.427 505.676,534.779 505.676,541.691C505.676,548.411 510.668,555.035 521.9,555.035C527.66,555.035 532.46,552.731 535.82,550.331C537.26,553.499 540.332,555.035 543.212,555.035C546.668,555.035 548.396,553.787 548.396,551.195C548.396,548.795 546.668,547.259 543.308,547.163ZM521.9,547.163C516.62,547.163 513.548,545.243 513.548,541.691C513.548,539.099 515.468,534.203 523.724,534.203C528.62,534.203 532.268,533.339 534.956,532.091L534.956,540.539C533.42,542.267 528.62,547.163 521.9,547.163Z" style="fill:white;fill-rule:nonzero;"/>
                </g>
                <g transform="matrix(1,0,0,1,-4.10558,0)">
                    <path d="M599.468,505.979C594.38,505.979 589.868,508.187 586.7,511.547C583.628,508.091 578.828,505.979 572.972,505.979C569.708,505.979 566.444,507.131 563.756,508.955C563.18,507.803 562.028,507.035 560.492,507.035C558.284,507.035 556.556,509.051 556.556,511.547L556.556,550.523C556.556,553.115 558.284,555.035 560.492,555.035C562.892,555.035 564.428,553.115 564.428,550.523L564.428,521.531C564.428,517.691 569.132,513.755 572.972,513.755C577.676,513.755 582.284,516.059 582.284,520.667L582.284,550.523C582.284,553.115 584.012,555.035 586.22,555.035C588.428,555.035 590.06,553.115 590.06,550.523L590.06,521.531C590.06,517.691 594.764,513.755 599.468,513.755C604.076,513.755 608.012,516.059 608.012,520.667L608.012,550.523C608.012,553.115 609.644,555.035 612.044,555.035C614.252,555.035 615.884,553.115 615.884,550.523L615.884,520.667C615.884,512.219 608.78,505.979 599.468,505.979Z" style="fill:white;fill-rule:nonzero;"/>
                </g>
                <g transform="matrix(1,0,0,1,-4.10558,0)">
                    <path d="M661.5,546.587L634.028,546.587L634.028,492.251C634.028,489.755 632.204,487.835 629.804,487.835C627.308,487.835 625.484,489.755 625.484,492.251L625.484,550.811C625.484,553.403 627.212,555.035 629.708,555.035L661.5,555.035C663.996,555.035 665.916,553.211 665.916,550.811C665.916,548.411 663.996,546.587 661.5,546.587Z" style="fill:white;fill-rule:nonzero;"/>
                </g>
                <g transform="matrix(0.974619,0,0,0.974619,217.263,12.9568)">
                    <path d="M477.644,555.995C464.78,555.995 455.948,545.531 455.948,531.035C455.948,517.403 465.548,506.075 477.644,506.075C489.74,506.075 499.244,516.539 499.244,529.403C499.244,531.515 497.804,533.435 495.308,533.435L464.012,533.435C464.78,542.267 470.348,547.835 477.644,547.835C483.212,547.835 487.628,544.763 489.74,542.267C493.388,537.947 499.244,542.939 496.076,547.067C493.004,551.195 485.612,555.995 477.644,555.995ZM464.78,525.467L490.508,525.467C488.876,518.939 483.98,514.235 477.644,514.235C471.98,514.235 466.412,518.939 464.78,525.467Z" style="fill:white;fill-rule:nonzero;"/>
                </g>
                <g transform="matrix(1,0,0,1,-19.5015,0)">
                    <path d="M767.852,547.163C767.372,547.163 767.372,546.395 767.372,545.723C767.372,542.075 767.372,534.299 767.276,523.643L767.276,523.163C767.276,512.795 760.844,507.035 749.804,507.035C735.788,507.035 732.524,516.539 732.524,519.899C732.524,522.107 733.58,523.835 736.268,523.835C740.012,523.835 739.34,519.899 741.932,517.307C743.564,515.675 746.156,514.907 749.804,514.907C757.004,514.907 759.308,517.019 759.404,521.915C759.308,524.507 755.18,526.427 748.268,526.427C735.884,526.427 730.22,534.779 730.22,541.691C730.22,548.411 735.212,555.035 746.444,555.035C752.204,555.035 757.004,552.731 760.364,550.331C761.804,553.499 764.876,555.035 767.756,555.035C771.212,555.035 772.94,553.787 772.94,551.195C772.94,548.795 771.212,547.259 767.852,547.163ZM746.444,547.163C741.164,547.163 738.092,545.243 738.092,541.691C738.092,539.099 740.012,534.203 748.268,534.203C753.164,534.203 756.812,533.339 759.5,532.091L759.5,540.539C757.964,542.267 753.164,547.163 746.444,547.163Z" style="fill:white;fill-rule:nonzero;"/>
                </g>
                <g transform="matrix(1,0,0,1,-19.5015,0)">
                    <path d="M812.684,489.851C810.38,489.851 808.556,491.579 808.556,494.075L808.556,508.379C805.388,505.883 801.356,504.539 796.46,504.539C785.036,504.539 776.972,515.099 776.972,529.691C776.972,544.475 785.036,555.035 796.46,555.035C800.588,555.035 805.004,553.691 808.556,550.619L808.556,550.715C808.556,553.307 810.38,555.035 812.684,555.035C815.084,555.035 816.62,553.307 816.62,550.715L816.62,494.075C816.62,491.579 814.988,489.851 812.684,489.851ZM796.46,546.875C787.436,546.875 785.036,537.851 785.036,529.691C785.036,521.627 787.436,512.699 796.46,512.699C804.62,512.699 808.556,518.363 808.556,529.691C808.556,536.315 807.02,546.875 796.46,546.875Z" style="fill:white;fill-rule:nonzero;"/>
                </g>
                <g transform="matrix(1,0,0,1,-19.5015,0)">
                    <path d="M870.476,487.835L828.044,487.835C825.548,487.835 823.628,489.563 823.628,491.963C823.628,494.363 825.548,496.187 828.044,496.187L845.516,496.187L845.516,550.619C845.516,553.115 847.244,555.035 849.74,555.035C852.14,555.035 853.868,553.115 853.868,550.619L853.868,496.187L870.476,496.187C872.972,496.187 874.892,494.363 874.892,491.963C874.892,489.563 872.972,487.835 870.476,487.835Z" style="fill:white;fill-rule:nonzero;"/>
                </g>
                <g transform="matrix(1.06484,0,0,0.979172,-80.9029,11.5803)">
                    <path d="M904.652,555.995C890.06,555.995 878.252,540.539 878.252,521.531C878.252,502.523 890.06,486.971 904.652,486.971C919.244,486.971 931.148,502.523 931.148,521.531C931.148,540.539 919.244,555.995 904.652,555.995ZM904.652,495.611C894.86,495.611 886.796,507.227 886.796,521.531C886.796,535.835 894.86,547.451 904.652,547.451C914.54,547.451 922.508,535.835 922.508,521.531C922.508,513.89 920.235,507.016 916.609,502.27C913.448,498.131 909.258,495.611 904.652,495.611Z" style="fill:white;fill-rule:nonzero;"/>
                </g>
            </g>
            <g id="Mountain" transform="matrix(4.29161,0,0,4.29161,470.084,10.7547)">
                <path d="M13.06,88L11,88C10.447,88 10,88.448 10,89C10,89.552 10.447,90 11,90L89,90C89.553,90 90,89.552 90,89C90,88.448 89.553,88 89,88L86.94,88C86.93,87.976 86.932,87.95 86.92,87.926L50.894,16.176C50.554,15.5 49.447,15.5 49.107,16.176L42.563,29.209C41.842,28.633 41.001,28.196 40.061,27.98C39.328,24.904 36.557,22.668 33.332,22.668C31.454,22.668 29.703,23.414 28.419,24.717C26.951,22.691 24.577,21.444 22.024,21.444C17.866,21.444 14.447,24.674 14.147,28.757C11.745,29.669 10.126,31.968 10.126,34.593C10.126,38.04 12.93,40.844 16.377,40.844C17.859,40.844 19.269,40.32 20.377,39.392C21.773,42.254 24.694,44.138 27.979,44.138C31.175,44.138 34.048,42.352 35.488,39.58C35.973,39.861 36.495,40.073 37.037,40.215L13.08,87.926C13.068,87.95 13.07,87.976 13.06,88ZM15.281,88L37.39,43.968L40.827,48.632C41.204,49.144 42.061,49.142 42.436,48.632L45.811,44.05L49.187,48.632C49.375,48.888 49.674,49.039 49.992,49.039C50.31,49.039 50.608,48.888 50.797,48.632L54.176,44.049L57.559,48.633C57.747,48.888 58.046,49.039 58.364,49.039C58.682,49.039 58.98,48.888 59.169,48.633L62.612,43.968L84.719,88L15.281,88ZM34.808,37.066C34.48,37.151 34.217,37.397 34.111,37.718C33.228,40.363 30.764,42.14 27.978,42.14C25.015,42.14 22.439,40.132 21.713,37.256C21.616,36.872 21.303,36.582 20.912,36.515C20.855,36.505 20.799,36.5 20.743,36.5C20.412,36.5 20.097,36.665 19.911,36.946C19.119,38.135 17.797,38.846 16.376,38.846C14.032,38.846 12.125,36.939 12.125,34.595C12.125,32.631 13.459,30.934 15.369,30.47C15.824,30.359 16.141,29.948 16.133,29.479L16.125,29.344C16.125,26.092 18.771,23.446 22.023,23.446C24.322,23.446 26.427,24.802 27.386,26.9C27.539,27.235 27.865,27.46 28.233,27.483C28.601,27.505 28.952,27.324 29.146,27.011C30.052,25.545 31.617,24.67 33.331,24.67C35.806,24.67 37.903,26.521 38.211,28.975C38.269,29.435 38.636,29.796 39.097,29.845C41.288,30.079 42.94,31.918 42.94,34.123C42.94,36.497 41.009,38.427 38.635,38.427C37.558,38.427 36.529,38.026 35.735,37.299C35.484,37.068 35.135,36.981 34.808,37.066Z" style="fill:white;fill-rule:nonzero;"/>
                <g transform="matrix(1,0,0,1,0.60976,-2.93926)">
                    <path d="M53.281,73.331C53.025,72.843 52.426,72.649 51.931,72.907C51.442,73.163 51.252,73.766 51.507,74.257C51.992,75.188 52.54,76.065 53.135,76.862C53.331,77.126 53.632,77.265 53.938,77.265C54.145,77.265 54.355,77.201 54.534,77.067C54.977,76.738 55.069,76.111 54.739,75.669C54.209,74.955 53.718,74.169 53.281,73.331Z" style="fill:white;fill-rule:nonzero;"/>
                </g>
                <g transform="matrix(1,0,0,1,0.60976,-2.93926)">
                    <path d="M57.245,78.35C56.83,77.987 56.196,78.029 55.834,78.445C55.471,78.861 55.513,79.493 55.929,79.856C56.644,80.481 57.425,81.087 58.316,81.711C58.491,81.833 58.69,81.892 58.888,81.892C59.203,81.892 59.514,81.744 59.708,81.465C60.024,81.013 59.915,80.389 59.462,80.072C58.631,79.49 57.905,78.927 57.245,78.35Z" style="fill:white;fill-rule:nonzero;"/>
                </g>
                <g transform="matrix(1,0,0,1,0.60976,-2.93926)">
                    <path d="M49.682,64.532C50.231,64.477 50.633,63.988 50.578,63.438C50.487,62.516 50.427,61.56 50.399,60.595C50.383,60.053 49.938,59.624 49.4,59.624C49.39,59.624 49.38,59.624 49.37,59.624C48.818,59.641 48.384,60.101 48.399,60.653C48.428,61.663 48.492,62.666 48.587,63.634C48.638,64.15 49.073,64.535 49.581,64.535C49.614,64.537 49.647,64.535 49.682,64.532Z" style="fill:white;fill-rule:nonzero;"/>
                </g>
                <g transform="matrix(1,0,0,1,0.60976,-2.93926)">
                    <path d="M65.197,83.576L64.635,83.253C63.983,82.878 63.329,82.502 62.68,82.118C62.206,81.838 61.592,81.995 61.311,82.47C61.03,82.946 61.187,83.559 61.663,83.839C62.318,84.228 62.979,84.608 63.638,84.986L64.198,85.308C64.356,85.399 64.527,85.442 64.697,85.442C65.043,85.442 65.379,85.262 65.564,84.942C65.84,84.464 65.676,83.853 65.197,83.576Z" style="fill:white;fill-rule:nonzero;"/>
                </g>
                <g transform="matrix(1,0,0,1,0.60976,-2.93926)">
                    <path d="M51.864,69.897C51.589,69.037 51.348,68.121 51.148,67.174C51.034,66.633 50.51,66.288 49.962,66.403C49.422,66.517 49.076,67.048 49.191,67.589C49.405,68.601 49.664,69.583 49.96,70.507C50.096,70.932 50.488,71.202 50.912,71.202C51.013,71.202 51.115,71.186 51.217,71.154C51.743,70.986 52.033,70.423 51.864,69.897Z" style="fill:white;fill-rule:nonzero;"/>
                </g>
                <g transform="matrix(1,0,0,1,0.60976,-2.93926)">
                    <path d="M68.573,85.604C68.11,85.306 67.49,85.44 67.191,85.904C66.892,86.368 67.026,86.987 67.491,87.286C68.373,87.853 69.129,88.386 69.8,88.912C69.984,89.056 70.2,89.125 70.416,89.125C70.713,89.125 71.007,88.993 71.204,88.742C71.545,88.307 71.469,87.679 71.034,87.338C70.312,86.773 69.508,86.206 68.573,85.604Z" style="fill:white;fill-rule:nonzero;"/>
                </g>
                <g transform="matrix(1,0,0,1,0.60976,-0.939261)">
                    <path d="M52.109,58.242C52.304,58.437 52.56,58.535 52.816,58.535C53.072,58.535 53.328,58.437 53.523,58.242C53.914,57.851 53.914,57.219 53.523,56.828L50.804,54.11L53.523,51.392C53.914,51.001 53.914,50.369 53.523,49.978C53.132,49.587 52.5,49.587 52.109,49.978L49.39,52.696L46.671,49.978C46.28,49.587 45.648,49.587 45.257,49.978C44.866,50.369 44.866,51.001 45.257,51.392L47.976,54.11L45.257,56.828C44.866,57.219 44.866,57.851 45.257,58.242C45.452,58.437 45.708,58.535 45.964,58.535C46.22,58.535 46.476,58.437 46.671,58.242L49.39,55.524L52.109,58.242Z" style="fill:white;fill-rule:nonzero;"/>
                </g>
            </g>
        </g>
    </g>
</svg>
